<mxfile host="app.diagrams.net" modified="2024-05-29T05:42:30.628Z" agent="Mozilla/5.0 (Windows NT 10.0; Win64; x64) AppleWebKit/537.36 (KHTML, like Gecko) Chrome/125.0.0.0 Safari/537.36" etag="X5i-kzIxTpSVBjMDOs0g" version="24.4.9" type="device">
  <diagram name="Страница — 1" id="9IpumBmARUucVKNFJiP_">
    <mxGraphModel dx="2022" dy="622" grid="1" gridSize="10" guides="1" tooltips="1" connect="1" arrows="1" fold="1" page="1" pageScale="1" pageWidth="827" pageHeight="1169" math="0" shadow="0">
      <root>
        <mxCell id="0" />
        <mxCell id="1" parent="0" />
        <mxCell id="0D9QJwJawH2V1QsHm-pU-23" style="edgeStyle=orthogonalEdgeStyle;rounded=0;orthogonalLoop=1;jettySize=auto;html=1;exitX=0;exitY=0.5;exitDx=0;exitDy=0;entryX=1;entryY=0.5;entryDx=0;entryDy=0;" edge="1" parent="1" source="0D9QJwJawH2V1QsHm-pU-1" target="0D9QJwJawH2V1QsHm-pU-22">
          <mxGeometry relative="1" as="geometry" />
        </mxCell>
        <mxCell id="0D9QJwJawH2V1QsHm-pU-32" style="edgeStyle=orthogonalEdgeStyle;rounded=0;orthogonalLoop=1;jettySize=auto;html=1;exitX=1;exitY=0.5;exitDx=0;exitDy=0;entryX=0;entryY=0.5;entryDx=0;entryDy=0;" edge="1" parent="1" source="0D9QJwJawH2V1QsHm-pU-1" target="0D9QJwJawH2V1QsHm-pU-31">
          <mxGeometry relative="1" as="geometry" />
        </mxCell>
        <mxCell id="0D9QJwJawH2V1QsHm-pU-1" value="Пользователь" style="rounded=0;whiteSpace=wrap;html=1;" vertex="1" parent="1">
          <mxGeometry x="280" y="260" width="120" height="60" as="geometry" />
        </mxCell>
        <mxCell id="0D9QJwJawH2V1QsHm-pU-2" value="Никнейм" style="ellipse;whiteSpace=wrap;html=1;" vertex="1" parent="1">
          <mxGeometry x="280" y="80" width="120" height="80" as="geometry" />
        </mxCell>
        <mxCell id="0D9QJwJawH2V1QsHm-pU-3" value="Роль" style="ellipse;whiteSpace=wrap;html=1;" vertex="1" parent="1">
          <mxGeometry x="150" y="120" width="120" height="80" as="geometry" />
        </mxCell>
        <mxCell id="0D9QJwJawH2V1QsHm-pU-4" value="Номер телефона" style="ellipse;whiteSpace=wrap;html=1;" vertex="1" parent="1">
          <mxGeometry x="413.5" y="110" width="120" height="80" as="geometry" />
        </mxCell>
        <mxCell id="0D9QJwJawH2V1QsHm-pU-5" value="Медицинское ограничение" style="rounded=0;whiteSpace=wrap;html=1;" vertex="1" parent="1">
          <mxGeometry x="430" y="525" width="120" height="60" as="geometry" />
        </mxCell>
        <mxCell id="0D9QJwJawH2V1QsHm-pU-6" value="Устанавливает" style="rhombus;whiteSpace=wrap;html=1;" vertex="1" parent="1">
          <mxGeometry x="440" y="380" width="100" height="80" as="geometry" />
        </mxCell>
        <mxCell id="0D9QJwJawH2V1QsHm-pU-9" value="Тип ограничения" style="ellipse;whiteSpace=wrap;html=1;" vertex="1" parent="1">
          <mxGeometry x="590" y="515" width="120" height="80" as="geometry" />
        </mxCell>
        <mxCell id="0D9QJwJawH2V1QsHm-pU-10" value="Описание ограничения" style="ellipse;whiteSpace=wrap;html=1;" vertex="1" parent="1">
          <mxGeometry x="430" y="640" width="120" height="80" as="geometry" />
        </mxCell>
        <mxCell id="0D9QJwJawH2V1QsHm-pU-16" value="" style="endArrow=classic;html=1;rounded=0;" edge="1" parent="1" source="0D9QJwJawH2V1QsHm-pU-2" target="0D9QJwJawH2V1QsHm-pU-1">
          <mxGeometry width="50" height="50" relative="1" as="geometry">
            <mxPoint x="400" y="350" as="sourcePoint" />
            <mxPoint x="450" y="300" as="targetPoint" />
          </mxGeometry>
        </mxCell>
        <mxCell id="0D9QJwJawH2V1QsHm-pU-17" value="" style="endArrow=classic;html=1;rounded=0;" edge="1" parent="1" source="0D9QJwJawH2V1QsHm-pU-3" target="0D9QJwJawH2V1QsHm-pU-1">
          <mxGeometry width="50" height="50" relative="1" as="geometry">
            <mxPoint x="400" y="350" as="sourcePoint" />
            <mxPoint x="450" y="300" as="targetPoint" />
          </mxGeometry>
        </mxCell>
        <mxCell id="0D9QJwJawH2V1QsHm-pU-18" value="" style="endArrow=classic;html=1;rounded=0;" edge="1" parent="1" source="0D9QJwJawH2V1QsHm-pU-4" target="0D9QJwJawH2V1QsHm-pU-1">
          <mxGeometry width="50" height="50" relative="1" as="geometry">
            <mxPoint x="400" y="350" as="sourcePoint" />
            <mxPoint x="450" y="300" as="targetPoint" />
          </mxGeometry>
        </mxCell>
        <mxCell id="0D9QJwJawH2V1QsHm-pU-19" value="" style="endArrow=classic;html=1;rounded=0;" edge="1" parent="1" source="0D9QJwJawH2V1QsHm-pU-10" target="0D9QJwJawH2V1QsHm-pU-5">
          <mxGeometry width="50" height="50" relative="1" as="geometry">
            <mxPoint x="430" y="630" as="sourcePoint" />
            <mxPoint x="480" y="580" as="targetPoint" />
          </mxGeometry>
        </mxCell>
        <mxCell id="0D9QJwJawH2V1QsHm-pU-20" value="" style="endArrow=classic;html=1;rounded=0;" edge="1" parent="1" source="0D9QJwJawH2V1QsHm-pU-9" target="0D9QJwJawH2V1QsHm-pU-5">
          <mxGeometry width="50" height="50" relative="1" as="geometry">
            <mxPoint x="430" y="630" as="sourcePoint" />
            <mxPoint x="480" y="580" as="targetPoint" />
          </mxGeometry>
        </mxCell>
        <mxCell id="0D9QJwJawH2V1QsHm-pU-21" value="Семья" style="rounded=0;whiteSpace=wrap;html=1;" vertex="1" parent="1">
          <mxGeometry x="-60" y="260" width="120" height="60" as="geometry" />
        </mxCell>
        <mxCell id="0D9QJwJawH2V1QsHm-pU-28" style="edgeStyle=orthogonalEdgeStyle;rounded=0;orthogonalLoop=1;jettySize=auto;html=1;exitX=0;exitY=0.5;exitDx=0;exitDy=0;entryX=1;entryY=0.5;entryDx=0;entryDy=0;" edge="1" parent="1" source="0D9QJwJawH2V1QsHm-pU-22" target="0D9QJwJawH2V1QsHm-pU-21">
          <mxGeometry relative="1" as="geometry" />
        </mxCell>
        <mxCell id="0D9QJwJawH2V1QsHm-pU-22" value="Является членом" style="rhombus;whiteSpace=wrap;html=1;" vertex="1" parent="1">
          <mxGeometry x="100" y="250" width="120" height="80" as="geometry" />
        </mxCell>
        <mxCell id="0D9QJwJawH2V1QsHm-pU-24" value="1" style="text;html=1;align=center;verticalAlign=middle;resizable=0;points=[];autosize=1;strokeColor=none;fillColor=none;" vertex="1" parent="1">
          <mxGeometry x="370" y="350" width="30" height="30" as="geometry" />
        </mxCell>
        <mxCell id="0D9QJwJawH2V1QsHm-pU-25" value="N" style="text;html=1;align=center;verticalAlign=middle;resizable=0;points=[];autosize=1;strokeColor=none;fillColor=none;" vertex="1" parent="1">
          <mxGeometry x="458.5" y="480" width="30" height="30" as="geometry" />
        </mxCell>
        <mxCell id="0D9QJwJawH2V1QsHm-pU-26" value="N" style="text;html=1;align=center;verticalAlign=middle;resizable=0;points=[];autosize=1;strokeColor=none;fillColor=none;" vertex="1" parent="1">
          <mxGeometry x="240" y="260" width="30" height="30" as="geometry" />
        </mxCell>
        <mxCell id="0D9QJwJawH2V1QsHm-pU-27" value="M" style="text;html=1;align=center;verticalAlign=middle;resizable=0;points=[];autosize=1;strokeColor=none;fillColor=none;" vertex="1" parent="1">
          <mxGeometry x="70" y="260" width="30" height="30" as="geometry" />
        </mxCell>
        <mxCell id="0D9QJwJawH2V1QsHm-pU-29" value="Название" style="ellipse;whiteSpace=wrap;html=1;" vertex="1" parent="1">
          <mxGeometry x="-60" y="140" width="120" height="80" as="geometry" />
        </mxCell>
        <mxCell id="0D9QJwJawH2V1QsHm-pU-30" value="" style="endArrow=classic;html=1;rounded=0;" edge="1" parent="1" source="0D9QJwJawH2V1QsHm-pU-29" target="0D9QJwJawH2V1QsHm-pU-21">
          <mxGeometry width="50" height="50" relative="1" as="geometry">
            <mxPoint x="120" y="300" as="sourcePoint" />
            <mxPoint x="170" y="250" as="targetPoint" />
          </mxGeometry>
        </mxCell>
        <mxCell id="0D9QJwJawH2V1QsHm-pU-34" style="edgeStyle=orthogonalEdgeStyle;rounded=0;orthogonalLoop=1;jettySize=auto;html=1;exitX=1;exitY=0.5;exitDx=0;exitDy=0;entryX=0;entryY=0.5;entryDx=0;entryDy=0;" edge="1" parent="1" source="0D9QJwJawH2V1QsHm-pU-31" target="0D9QJwJawH2V1QsHm-pU-33">
          <mxGeometry relative="1" as="geometry" />
        </mxCell>
        <mxCell id="0D9QJwJawH2V1QsHm-pU-31" value="Принимает" style="rhombus;whiteSpace=wrap;html=1;" vertex="1" parent="1">
          <mxGeometry x="474" y="250" width="120" height="80" as="geometry" />
        </mxCell>
        <mxCell id="0D9QJwJawH2V1QsHm-pU-33" value="Задание" style="rounded=0;whiteSpace=wrap;html=1;" vertex="1" parent="1">
          <mxGeometry x="680" y="260" width="120" height="60" as="geometry" />
        </mxCell>
        <mxCell id="0D9QJwJawH2V1QsHm-pU-35" value="N" style="text;html=1;align=center;verticalAlign=middle;resizable=0;points=[];autosize=1;strokeColor=none;fillColor=none;" vertex="1" parent="1">
          <mxGeometry x="400" y="290" width="30" height="30" as="geometry" />
        </mxCell>
        <mxCell id="0D9QJwJawH2V1QsHm-pU-36" value="M" style="text;html=1;align=center;verticalAlign=middle;resizable=0;points=[];autosize=1;strokeColor=none;fillColor=none;" vertex="1" parent="1">
          <mxGeometry x="650" y="290" width="30" height="30" as="geometry" />
        </mxCell>
        <mxCell id="0D9QJwJawH2V1QsHm-pU-37" value="Тип задания" style="ellipse;whiteSpace=wrap;html=1;" vertex="1" parent="1">
          <mxGeometry x="680" y="140" width="120" height="80" as="geometry" />
        </mxCell>
        <mxCell id="0D9QJwJawH2V1QsHm-pU-38" value="Описание задания" style="ellipse;whiteSpace=wrap;html=1;" vertex="1" parent="1">
          <mxGeometry x="680" y="365" width="120" height="80" as="geometry" />
        </mxCell>
        <mxCell id="0D9QJwJawH2V1QsHm-pU-40" value="" style="endArrow=classic;html=1;rounded=0;" edge="1" parent="1" source="0D9QJwJawH2V1QsHm-pU-38" target="0D9QJwJawH2V1QsHm-pU-33">
          <mxGeometry width="50" height="50" relative="1" as="geometry">
            <mxPoint x="670" y="310" as="sourcePoint" />
            <mxPoint x="720" y="260" as="targetPoint" />
          </mxGeometry>
        </mxCell>
        <mxCell id="0D9QJwJawH2V1QsHm-pU-41" value="" style="endArrow=classic;html=1;rounded=0;" edge="1" parent="1" source="0D9QJwJawH2V1QsHm-pU-37" target="0D9QJwJawH2V1QsHm-pU-33">
          <mxGeometry width="50" height="50" relative="1" as="geometry">
            <mxPoint x="670" y="310" as="sourcePoint" />
            <mxPoint x="720" y="260" as="targetPoint" />
          </mxGeometry>
        </mxCell>
        <mxCell id="0D9QJwJawH2V1QsHm-pU-42" value="Снаряжение" style="rounded=0;whiteSpace=wrap;html=1;" vertex="1" parent="1">
          <mxGeometry x="240" y="525" width="120" height="60" as="geometry" />
        </mxCell>
        <mxCell id="0D9QJwJawH2V1QsHm-pU-43" value="Экипирует&lt;div&gt;героя в&lt;/div&gt;" style="rhombus;whiteSpace=wrap;html=1;" vertex="1" parent="1">
          <mxGeometry x="250" y="400" width="100" height="80" as="geometry" />
        </mxCell>
        <mxCell id="0D9QJwJawH2V1QsHm-pU-44" value="" style="endArrow=classic;html=1;rounded=0;" edge="1" parent="1" source="0D9QJwJawH2V1QsHm-pU-1" target="0D9QJwJawH2V1QsHm-pU-43">
          <mxGeometry width="50" height="50" relative="1" as="geometry">
            <mxPoint x="300" y="430" as="sourcePoint" />
            <mxPoint x="350" y="380" as="targetPoint" />
          </mxGeometry>
        </mxCell>
        <mxCell id="0D9QJwJawH2V1QsHm-pU-46" value="" style="endArrow=classic;html=1;rounded=0;" edge="1" parent="1" source="0D9QJwJawH2V1QsHm-pU-43" target="0D9QJwJawH2V1QsHm-pU-42">
          <mxGeometry width="50" height="50" relative="1" as="geometry">
            <mxPoint x="300" y="430" as="sourcePoint" />
            <mxPoint x="350" y="380" as="targetPoint" />
          </mxGeometry>
        </mxCell>
        <mxCell id="0D9QJwJawH2V1QsHm-pU-47" value="Тип снаряжения" style="ellipse;whiteSpace=wrap;html=1;" vertex="1" parent="1">
          <mxGeometry x="50" y="515" width="120" height="80" as="geometry" />
        </mxCell>
        <mxCell id="0D9QJwJawH2V1QsHm-pU-49" value="" style="endArrow=classic;html=1;rounded=0;" edge="1" parent="1" source="0D9QJwJawH2V1QsHm-pU-47" target="0D9QJwJawH2V1QsHm-pU-42">
          <mxGeometry width="50" height="50" relative="1" as="geometry">
            <mxPoint x="240" y="490" as="sourcePoint" />
            <mxPoint x="290" y="440" as="targetPoint" />
          </mxGeometry>
        </mxCell>
        <mxCell id="0D9QJwJawH2V1QsHm-pU-50" value="Прочность" style="ellipse;whiteSpace=wrap;html=1;" vertex="1" parent="1">
          <mxGeometry x="240" y="640" width="120" height="80" as="geometry" />
        </mxCell>
        <mxCell id="0D9QJwJawH2V1QsHm-pU-51" value="" style="endArrow=classic;html=1;rounded=0;" edge="1" parent="1" source="0D9QJwJawH2V1QsHm-pU-50" target="0D9QJwJawH2V1QsHm-pU-42">
          <mxGeometry width="50" height="50" relative="1" as="geometry">
            <mxPoint x="240" y="490" as="sourcePoint" />
            <mxPoint x="290" y="440" as="targetPoint" />
          </mxGeometry>
        </mxCell>
        <mxCell id="0D9QJwJawH2V1QsHm-pU-52" value="Инвентарь" style="rounded=0;whiteSpace=wrap;html=1;" vertex="1" parent="1">
          <mxGeometry x="-200" y="390" width="120" height="60" as="geometry" />
        </mxCell>
        <mxCell id="0D9QJwJawH2V1QsHm-pU-53" value="" style="endArrow=classic;html=1;rounded=0;" edge="1" parent="1" source="0D9QJwJawH2V1QsHm-pU-54" target="0D9QJwJawH2V1QsHm-pU-52">
          <mxGeometry width="50" height="50" relative="1" as="geometry">
            <mxPoint x="30" y="430" as="sourcePoint" />
            <mxPoint x="220" y="460" as="targetPoint" />
          </mxGeometry>
        </mxCell>
        <mxCell id="0D9QJwJawH2V1QsHm-pU-54" value="Хранит предметы&lt;div&gt;в&lt;/div&gt;" style="rhombus;whiteSpace=wrap;html=1;" vertex="1" parent="1">
          <mxGeometry x="30" y="380" width="160" height="80" as="geometry" />
        </mxCell>
        <mxCell id="0D9QJwJawH2V1QsHm-pU-55" value="" style="endArrow=classic;html=1;rounded=0;" edge="1" parent="1" source="0D9QJwJawH2V1QsHm-pU-1" target="0D9QJwJawH2V1QsHm-pU-54">
          <mxGeometry width="50" height="50" relative="1" as="geometry">
            <mxPoint x="170" y="430" as="sourcePoint" />
            <mxPoint x="220" y="380" as="targetPoint" />
          </mxGeometry>
        </mxCell>
        <mxCell id="0D9QJwJawH2V1QsHm-pU-56" value="" style="endArrow=classic;html=1;rounded=0;" edge="1" parent="1" source="0D9QJwJawH2V1QsHm-pU-1" target="0D9QJwJawH2V1QsHm-pU-6">
          <mxGeometry width="50" height="50" relative="1" as="geometry">
            <mxPoint x="170" y="430" as="sourcePoint" />
            <mxPoint x="220" y="380" as="targetPoint" />
          </mxGeometry>
        </mxCell>
        <mxCell id="0D9QJwJawH2V1QsHm-pU-57" value="" style="endArrow=classic;html=1;rounded=0;" edge="1" parent="1" source="0D9QJwJawH2V1QsHm-pU-6" target="0D9QJwJawH2V1QsHm-pU-5">
          <mxGeometry width="50" height="50" relative="1" as="geometry">
            <mxPoint x="170" y="440" as="sourcePoint" />
            <mxPoint x="220" y="390" as="targetPoint" />
          </mxGeometry>
        </mxCell>
        <mxCell id="0D9QJwJawH2V1QsHm-pU-58" value="Тип предмета" style="ellipse;whiteSpace=wrap;html=1;" vertex="1" parent="1">
          <mxGeometry x="-360" y="640" width="120" height="80" as="geometry" />
        </mxCell>
        <mxCell id="0D9QJwJawH2V1QsHm-pU-59" value="Количество" style="ellipse;whiteSpace=wrap;html=1;" vertex="1" parent="1">
          <mxGeometry x="-360" y="380" width="120" height="80" as="geometry" />
        </mxCell>
        <mxCell id="0D9QJwJawH2V1QsHm-pU-60" value="Содержит" style="rhombus;whiteSpace=wrap;html=1;" vertex="1" parent="1">
          <mxGeometry x="-220" y="510" width="160" height="80" as="geometry" />
        </mxCell>
        <mxCell id="0D9QJwJawH2V1QsHm-pU-61" value="" style="endArrow=classic;html=1;rounded=0;" edge="1" parent="1" source="0D9QJwJawH2V1QsHm-pU-52" target="0D9QJwJawH2V1QsHm-pU-60">
          <mxGeometry width="50" height="50" relative="1" as="geometry">
            <mxPoint x="200" y="440" as="sourcePoint" />
            <mxPoint x="250" y="390" as="targetPoint" />
          </mxGeometry>
        </mxCell>
        <mxCell id="0D9QJwJawH2V1QsHm-pU-63" value="" style="endArrow=classic;html=1;rounded=0;" edge="1" parent="1" source="0D9QJwJawH2V1QsHm-pU-59" target="0D9QJwJawH2V1QsHm-pU-52">
          <mxGeometry width="50" height="50" relative="1" as="geometry">
            <mxPoint x="110" y="610" as="sourcePoint" />
            <mxPoint x="160" y="560" as="targetPoint" />
          </mxGeometry>
        </mxCell>
        <mxCell id="0D9QJwJawH2V1QsHm-pU-64" value="Предмет" style="rounded=0;whiteSpace=wrap;html=1;" vertex="1" parent="1">
          <mxGeometry x="-200" y="650" width="120" height="60" as="geometry" />
        </mxCell>
        <mxCell id="0D9QJwJawH2V1QsHm-pU-65" value="" style="endArrow=classic;html=1;rounded=0;" edge="1" parent="1" source="0D9QJwJawH2V1QsHm-pU-60" target="0D9QJwJawH2V1QsHm-pU-64">
          <mxGeometry width="50" height="50" relative="1" as="geometry">
            <mxPoint x="60" y="550" as="sourcePoint" />
            <mxPoint x="110" y="500" as="targetPoint" />
          </mxGeometry>
        </mxCell>
        <mxCell id="0D9QJwJawH2V1QsHm-pU-66" value="Название" style="ellipse;whiteSpace=wrap;html=1;" vertex="1" parent="1">
          <mxGeometry x="-200" y="740" width="120" height="80" as="geometry" />
        </mxCell>
        <mxCell id="0D9QJwJawH2V1QsHm-pU-67" value="" style="endArrow=classic;html=1;rounded=0;" edge="1" parent="1" source="0D9QJwJawH2V1QsHm-pU-66" target="0D9QJwJawH2V1QsHm-pU-64">
          <mxGeometry width="50" height="50" relative="1" as="geometry">
            <mxPoint x="60" y="550" as="sourcePoint" />
            <mxPoint x="110" y="500" as="targetPoint" />
          </mxGeometry>
        </mxCell>
        <mxCell id="0D9QJwJawH2V1QsHm-pU-68" value="" style="endArrow=classic;html=1;rounded=0;" edge="1" parent="1" source="0D9QJwJawH2V1QsHm-pU-58" target="0D9QJwJawH2V1QsHm-pU-64">
          <mxGeometry width="50" height="50" relative="1" as="geometry">
            <mxPoint x="60" y="550" as="sourcePoint" />
            <mxPoint x="110" y="500" as="targetPoint" />
          </mxGeometry>
        </mxCell>
        <mxCell id="0D9QJwJawH2V1QsHm-pU-69" value="Описание предмета" style="ellipse;whiteSpace=wrap;html=1;" vertex="1" parent="1">
          <mxGeometry x="-30" y="640" width="120" height="80" as="geometry" />
        </mxCell>
        <mxCell id="0D9QJwJawH2V1QsHm-pU-70" value="" style="endArrow=classic;html=1;rounded=0;" edge="1" parent="1" source="0D9QJwJawH2V1QsHm-pU-69" target="0D9QJwJawH2V1QsHm-pU-64">
          <mxGeometry width="50" height="50" relative="1" as="geometry">
            <mxPoint x="80" y="660" as="sourcePoint" />
            <mxPoint x="130" y="610" as="targetPoint" />
          </mxGeometry>
        </mxCell>
        <mxCell id="0D9QJwJawH2V1QsHm-pU-74" value="1" style="text;html=1;align=center;verticalAlign=middle;resizable=0;points=[];autosize=1;strokeColor=none;fillColor=none;" vertex="1" parent="1">
          <mxGeometry x="290" y="350" width="30" height="30" as="geometry" />
        </mxCell>
        <mxCell id="0D9QJwJawH2V1QsHm-pU-75" value="N" style="text;html=1;align=center;verticalAlign=middle;resizable=0;points=[];autosize=1;strokeColor=none;fillColor=none;" vertex="1" parent="1">
          <mxGeometry x="260" y="480" width="30" height="30" as="geometry" />
        </mxCell>
        <mxCell id="0D9QJwJawH2V1QsHm-pU-76" value="1" style="text;html=1;align=center;verticalAlign=middle;resizable=0;points=[];autosize=1;strokeColor=none;fillColor=none;" vertex="1" parent="1">
          <mxGeometry x="240" y="310" width="30" height="30" as="geometry" />
        </mxCell>
        <mxCell id="0D9QJwJawH2V1QsHm-pU-77" value="N" style="text;html=1;align=center;verticalAlign=middle;resizable=0;points=[];autosize=1;strokeColor=none;fillColor=none;" vertex="1" parent="1">
          <mxGeometry x="-80" y="390" width="30" height="30" as="geometry" />
        </mxCell>
        <mxCell id="0D9QJwJawH2V1QsHm-pU-78" value="N" style="text;html=1;align=center;verticalAlign=middle;resizable=0;points=[];autosize=1;strokeColor=none;fillColor=none;" vertex="1" parent="1">
          <mxGeometry x="-170" y="450" width="30" height="30" as="geometry" />
        </mxCell>
        <mxCell id="0D9QJwJawH2V1QsHm-pU-79" value="M" style="text;html=1;align=center;verticalAlign=middle;resizable=0;points=[];autosize=1;strokeColor=none;fillColor=none;" vertex="1" parent="1">
          <mxGeometry x="-170" y="620" width="30" height="30" as="geometry" />
        </mxCell>
      </root>
    </mxGraphModel>
  </diagram>
</mxfile>
